<svg id="Capa_1" enable-background="new 0 0 512 512" height="512" viewBox="0 0 512 512" width="512" xmlns="http://www.w3.org/2000/svg"><g fill="#688b96"><path d="m415.509 49.203h-65.057c-4.268 0-7.726-3.459-7.726-7.726s3.459-7.726 7.726-7.726h65.057c4.268 0 7.726 3.459 7.726 7.726s-3.458 7.726-7.726 7.726z"/><path d="m395.183 111.985h-44.731c-4.268 0-7.726-3.459-7.726-7.726 0-4.268 3.459-7.726 7.726-7.726h44.731c4.268 0 7.726 3.459 7.726 7.726.001 4.267-3.458 7.726-7.726 7.726z"/><path d="m415.509 174.766h-65.057c-4.268 0-7.726-3.459-7.726-7.726 0-4.268 3.459-7.726 7.726-7.726h65.057c4.268 0 7.726 3.459 7.726 7.726.001 4.267-3.458 7.726-7.726 7.726z"/><path d="m395.183 237.546h-44.731c-4.268 0-7.726-3.459-7.726-7.726s3.459-7.726 7.726-7.726h44.731c4.268 0 7.726 3.459 7.726 7.726s-3.458 7.726-7.726 7.726z"/><path d="m415.509 300.327h-65.057c-4.268 0-7.726-3.459-7.726-7.726 0-4.268 3.459-7.726 7.726-7.726h65.057c4.268 0 7.726 3.459 7.726 7.726.001 4.267-3.458 7.726-7.726 7.726z"/></g><path d="m268.74 309.52v-242.033c0-37.272-30.215-67.487-67.487-67.487-37.272 0-67.487 30.215-67.487 67.487v242.033c-27.323 20.521-45.001 53.189-45.001 89.991-.001 62.126 50.362 112.489 112.488 112.489 62.126 0 112.488-50.363 112.488-112.488 0-36.803-17.678-69.47-45.001-89.992z" fill="#f1faff"/><path d="m268.74 309.52v-242.033c0-37.272-30.215-67.487-67.487-67.487-6.544 0-12.87.931-18.853 2.669 28.097 8.158 48.634 34.09 48.634 64.818v242.033c27.323 20.522 45.001 53.189 45.001 89.991 0 55.701-40.485 101.946-93.635 110.915 6.13 1.034 12.429 1.574 18.853 1.574 62.125 0 112.488-50.363 112.488-112.488 0-36.803-17.678-69.47-45.001-89.992z" fill="#dcf5ff"/><path d="m221.827 333.625v-264.357c0-11.363-9.211-20.574-20.574-20.574s-20.574 9.211-20.574 20.574v264.359c-28.272 9.044-48.447 36.194-46.822 67.825 1.768 34.415 29.752 62.252 64.175 63.852 38.736 1.8 70.707-29.072 70.707-67.412.001-30.094-19.706-55.564-46.912-64.267z" fill="#7ba0b0"/><path d="m221.827 323.719v-156.68h-41.148v156.685c0 5.637-3.237 10.779-8.329 13.196-23.434 11.122-39.444 35.332-38.548 63.198 1.124 34.949 29.302 63.564 64.231 65.187 38.736 1.8 70.707-29.072 70.707-67.412 0-26.961-15.817-50.211-38.673-61.017-5.065-2.396-8.24-7.555-8.24-13.157z" fill="#fa4954"/><path d="m230.067 336.875c-5.064-2.394-8.24-7.554-8.24-13.155v-156.681h-41.148v151.548c0 1.31.976 14.979 7.228 18.288 22.346 11.825 38.673 34.056 38.673 61.017 0 29.899-19.443 55.256-46.375 64.119 5.655 1.869 11.635 3.006 17.827 3.294 38.736 1.8 70.707-29.072 70.707-67.413.001-26.961-15.816-50.211-38.672-61.017z" fill="#fa2a3b"/></svg>